inDegrees=no
num_controls=7
num_derivatives=13
num_iterations=166
num_multipliers=7
num_parameters=0
num_slacks=7
num_states=26
objective=0.493912
objective_accelerations=0.011261
objective_balance=0.003925
objective_effort=0.017267
objective_height=0.360108
objective_ligament=0.101352
solver_duration=2039.183489
status=Solve_Succeeded
success=true
DataType=double
version=3
OpenSimVersion=4.5
endheader
time	/jointset/ground_pelvis/pelvis_tilt/value	/jointset/ground_pelvis/pelvis_tx/value	/jointset/ground_pelvis/pelvis_ty/value	/jointset/hip_l/hip_flexion_l/value	/jointset/hip_l/hip_adduction_l/value	/jointset/hip_l/hip_rotation_l/value	/jointset/back/lumbar_extension/value	/jointset/patellofemoral_l/patellar_flexion_l/value	/jointset/knee_l/knee_flexion_l/value	/jointset/knee_l/knee_adduction_l/value	/jointset/knee_l/knee_rotation_l/value	/jointset/ankle_l/ankle_angle_l/value	/jointset/subtalar_l/subtalar_angle_l/value	/jointset/ground_pelvis/pelvis_tilt/speed	/jointset/ground_pelvis/pelvis_tx/speed	/jointset/ground_pelvis/pelvis_ty/speed	/jointset/hip_l/hip_flexion_l/speed	/jointset/hip_l/hip_adduction_l/speed	/jointset/hip_l/hip_rotation_l/speed	/jointset/back/lumbar_extension/speed	/jointset/patellofemoral_l/patellar_flexion_l/speed	/jointset/knee_l/knee_flexion_l/speed	/jointset/knee_l/knee_adduction_l/speed	/jointset/knee_l/knee_rotation_l/speed	/jointset/ankle_l/ankle_angle_l/speed	/jointset/subtalar_l/subtalar_angle_l/speed	/forceset/tau_hip_flexion_l	/forceset/tau_hip_adduction_l	/forceset/tau_hip_rotation_l	/forceset/tau_knee_flexion_l	/forceset/tau_ankle_angle_l	/forceset/tau_subtalar_angle_l	/forceset/tau_lumbar_extension	lambda_cid13_p0	lambda_cid13_p1	lambda_cid13_p2	lambda_cid13_p3	lambda_cid13_p4	lambda_cid13_p5	lambda_cid14_p0	/jointset/ground_pelvis/pelvis_tilt/accel	/jointset/ground_pelvis/pelvis_tx/accel	/jointset/ground_pelvis/pelvis_ty/accel	/jointset/hip_l/hip_flexion_l/accel	/jointset/hip_l/hip_adduction_l/accel	/jointset/hip_l/hip_rotation_l/accel	/jointset/back/lumbar_extension/accel	/jointset/patellofemoral_l/patellar_flexion_l/accel	/jointset/knee_l/knee_flexion_l/accel	/jointset/knee_l/knee_adduction_l/accel	/jointset/knee_l/knee_rotation_l/accel	/jointset/ankle_l/ankle_angle_l/accel	/jointset/subtalar_l/subtalar_angle_l/accel	gamma_cid13_p0	gamma_cid13_p1	gamma_cid13_p2	gamma_cid13_p3	gamma_cid13_p4	gamma_cid13_p5	gamma_cid14_p0
1	-0.05425440084124396	-0.05851400151147166	0.8693176461603357	0.6700541521227593	-0.2826559206957613	-0.2258981392224858	-0.959930933890114	0.5470479282014341	0.5470479282019156	-0.06175646944950499	-0.1744993566836228	-0.01635791303451232	0.007431056464351858	0.1300928364679066	0.02891718511845497	0.04262418922475233	-0.2763666868872827	0.02491030013557669	-0.05577784225873149	0.002035901475720439	-0.1474492386388607	-0.1474492386388305	0.01917316365199607	0.0001162775230349903	0.001029700110943608	0.02666639590887479	-0.3086007279211855	0.04749532731838121	-0.007040998877034741	-0.1051767842906698	0.07662306092206651	0.05816737846500184	0.3760644022216534	-21.36990600821744	-22.85503999222421	4.713917512023896	3.746503876883821	-731.2350618802233	-78.4135444933996	-22.28810467447616	0.9638585112784008	0.1875595740099369	0.3394376264312266	-2.165149633347096	0.2924615327620442	-0.5537738416860534	0.4223675996893057	-1.383273447355539	-1.383273447355523	0.299072752289888	0.005338831022734979	-0.1363305357898578	0.2600244267434969	-4.563831107251137e-09	-1.062264002974189e-09	9.29157223522888e-09	4.154793400674188e-09	-1.854538026854464e-08	2.029087302758814e-09	-1.703122710418547e-09
1.01	-0.052906296010178	-0.05821532279957128	0.8697606851432662	0.6671835529972804	-0.2823921325127181	-0.2264836455610635	-0.9598876206235608	0.5455047509714833	0.5455047509715452	-0.06154950572950112	-0.174498044475633	-0.01635417897502788	0.007710874717016374	0.1394757050336086	0.0308339309279269	0.04597703562379372	-0.297708263622982	0.02784415217785346	-0.06132015371986673	0.006754710382948985	-0.161179356034326	-0.1611793560343168	0.02221078926972004	0.0001419557247522143	-0.0002684647275277382	0.02929899334207838	-0.3083131384542651	0.04745633464970817	-0.007056031465580214	-0.1050271099899794	0.0769197367706041	0.05813098685820142	0.3764167278035193	-21.28339789683954	-22.85925038009672	4.72014956601309	3.448861784350479	-731.566037867166	-78.50019535715137	-22.31830400204283	0.9176370042730683	0.1960393731151647	0.332217981924173	-2.111931325499061	0.2933692809657761	-0.5539712109448076	0.5158313175644863	-1.366852748770914	-1.366852748773968	0.3047886916050878	0.0005533959048914705	-0.1243965170844112	0.2651373974208773	-6.226942689561758e-09	-2.581382394444606e-09	1.132068430085763e-08	6.174194564141543e-09	-2.198554269473845e-08	1.086365559052744e-09	-2.191783498225212e-09
1.02	-0.05146593529844861	-0.05789701517183598	0.8702370545572434	0.6641008841780807	-0.2820991013610486	-0.2271244772967785	-0.9597932805116349	0.5438244781949531	0.5438244781945912	-0.06131242950830514	-0.1744966012693921	-0.01636299397576849	0.008017070943175351	0.1485440126016011	0.0328429682854425	0.04929027543410476	-0.3187806256313804	0.03075889386034303	-0.06684292168570488	0.01224127054315868	-0.1748683479549477	-0.1748683479549587	0.02519566389110107	0.0001424771728165403	-0.001480111934346373	0.03194199060776503	-0.3080255489873404	0.04741734198103458	-0.007071064054136361	-0.1048774356892979	0.07721641261913494	0.05809459525139818	0.3767690533853924	-21.20509929644485	-22.86227901433546	4.726485231080623	3.165655734623104	-732.023643552033	-78.6001061712215	-22.35083306631473	0.9009463117365377	0.2060178836186095	0.331516308685147	-2.111306687886889	0.2886394608046193	-0.5498651426266404	0.5759178502854103	-1.375048352386841	-1.375048352386657	0.2885225530213237	0.0003074802921591421	-0.1190270094593882	0.2621043932400961	-7.239168171769907e-09	-3.202344952219129e-09	1.239185686708891e-08	7.376777912716999e-09	-2.512471359351303e-08	7.651238413214691e-10	-2.409213988735944e-09
1.03	-0.04993639225423943	-0.0575580104364779	0.8707464168378437	0.6608084939191721	-0.2817770003095943	-0.2278204281013923	-0.9596394878216258	0.5420074091590151	0.5420074091590454	-0.06104578239051615	-0.1744952308536976	-0.01638332234452805	0.008349827346104916	0.1573197456463324	0.03498817063195735	0.05258169608044904	-0.3396890155289402	0.03365959856671084	-0.07234328360134083	0.01872015747910895	-0.1885517382574852	-0.1885517382574903	0.02812236002212316	0.0001320392609915307	-0.002554691437359401	0.03461831313476925	-0.3086027168644137	0.04763296053628775	-0.007084232166331338	-0.1042050513508616	0.07721398183957057	0.05818773327397731	0.3781199241417836	-21.24255293871091	-22.90490141806498	4.743252655626166	2.740310423191354	-733.02611093238	-78.7225570369682	-22.38559101968295	0.8591588876994461	0.2233019083519325	0.3278765805998006	-2.079344528449993	0.2905282455961136	-0.5495310039351545	0.7143076181538213	-1.365925696827469	-1.365925696826613	0.2930329703781784	-0.001651648034105205	-0.09704370353141559	0.271748828420319	-8.244751959079047e-09	-3.81414265454777e-09	1.345325454046919e-08	8.571026385630287e-09	-2.826081315017109e-08	4.502237565083076e-10	-2.623876823151818e-09
1.04	-0.04832043746221699	-0.05719664757801748	0.871288677652505	0.6573072718837306	-0.2814259437570662	-0.2285712643827463	-0.9594148195616728	0.5400533179545228	0.5400533179549449	-0.06075021034596948	-0.1744939512613439	-0.01641347056487831	0.008709617503502486	0.165826362165397	0.03731459290590822	0.05586998224633608	-0.3605469809368702	0.03654999407481176	-0.07782001703310171	0.02641638453120717	-0.2022727816656346	-0.2022727816656349	0.03098064924256501	0.0001243125045960545	-0.003444082252740224	0.03734874150136238	-0.309179884741509	0.04784857909153686	-0.007097400278514287	-0.1035326670124431	0.07721155105999797	0.05828087129655032	0.3794707948981624	-21.28842962938596	-22.94640890357682	4.760253396439004	2.327899035744325	-734.1600831537098	-78.8589606930022	-22.42247835542311	0.8471230066031959	0.2422618691057699	0.3308894125936932	-2.101221789960968	0.2865776211512536	-0.5451394458516298	0.8193858735149591	-1.382578973509237	-1.382578973509253	0.274841170905294	0.0008497113780693063	-0.0819892719330025	0.2729255611578681	-8.432263393486964e-09	-4.240618157506537e-09	1.350272380459788e-08	8.830275756977356e-09	-2.9585582038157e-08	6.56681692476098e-10	-2.711326796530799e-09
1.05	-0.04662081686178537	-0.05681116376811354	0.8718637750126715	0.6535978709471467	-0.2810460462025767	-0.2293767171641976	-0.9591073646903396	0.5379618497433591	0.5379618497435841	-0.06042643275939762	-0.1744927283139124	-0.01645166563790915	0.009096943170166186	0.1740458743124444	0.0398075002468448	0.05914572600380814	-0.3813079399332755	0.0394272504035511	-0.08326530364042931	0.03525348276966424	-0.2160246767479831	-0.2160246767479825	0.03376202221112257	0.000120073296524272	-0.004171794921319787	0.04012216876498946	-0.3092031118857458	0.04794686476407728	-0.007118370816646086	-0.1030296680277957	0.07733161871511512	0.05829192353072467	0.3802868193179456	-21.27369148404741	-22.96207838032954	4.772219520224271	1.957720981901044	-734.8596518581337	-78.97204043746038	-22.46138335196756	0.8015824765147153	0.2566066566819158	0.3253461062833257	-2.059743996962131	0.2879598929600123	-0.5434407055898122	0.942705754057934	-1.372066642922697	-1.372066642922446	0.2778580413672431	-0.001088443074073309	-0.06469253837074397	0.2804171588685322	-8.59421006686672e-09	-4.661302341734997e-09	1.352057030593746e-08	9.060306406400483e-09	-3.085374684274691e-08	8.794320665932902e-10	-2.794801368002377e-09
1.06	-0.04484055770833709	-0.05639999058678098	0.8724715156602041	0.6496816182121029	-0.2806374440339516	-0.230236466299208	-0.9587061720456117	0.5357327482079063	0.5357327482079333	-0.06007522690683577	-0.1744915532997954	-0.01649644389243431	0.009512176279446886	0.1819540727698722	0.04245246719162969	0.06239863971957787	-0.4019173406289435	0.04229091690128101	-0.08867928774441752	0.04516393920998437	-0.2297994465233341	-0.229799446523332	0.03646630244112967	0.0001147258414818918	-0.004760718551913082	0.04293023002475228	-0.309226339029971	0.04804515043661764	-0.007139341354776771	-0.1025266690431553	0.07745168637022563	0.05830297576489688	0.3811028437377414	-21.26740642988332	-22.97668217974462	4.78448906615448	1.598406705885459	-735.6925569364824	-79.09960252684199	-22.50218363755605	0.784860268679249	0.272673789875405	0.3263234042532201	-2.070910129813509	0.2838596549493775	-0.5388789451837616	1.034057513887536	-1.387153912109763	-1.387153912109634	0.2594226231952143	0.0006280619839529076	-0.05423146433578594	0.2798523603850085	-8.774438996524017e-09	-5.179914071301212e-09	1.335192837525313e-08	9.446195323372326e-09	-3.260696988317066e-08	1.041836408499361e-09	-2.805923519754835e-09
